HIERARCHY
ROOT root
{
	OFFSET	0	13.1	24.9
	CHANNELS 6  Xposition Yposition Zposition Xrotation Yrotation Zrotation
	JOINT spine_1
	{
		OFFSET	0	9.99999	0
		CHANNELS 3  Xrotation Yrotation Zrotation
		JOINT spine_2
		{
			OFFSET	0	112	-10
			CHANNELS 3  Xrotation Yrotation Zrotation
			JOINT spine_3
			{
				OFFSET	0	206.5	19.3
				CHANNELS 3  Xrotation Yrotation Zrotation
				JOINT spine_4
				{
					OFFSET	0	110.4	14.6
					CHANNELS 3  Xrotation Yrotation Zrotation
					JOINT neck_1
					{
						OFFSET	0	71.8	-50.3
						CHANNELS 3  Xrotation Yrotation Zrotation
						JOINT neck_2
						{
							OFFSET	0	86.2	-25.8
							CHANNELS 3  Xrotation Yrotation Zrotation
							JOINT head_ee
							{
								OFFSET	0	179.8	-8.7
								CHANNELS 3  Xrotation Yrotation Zrotation
								End Site
								{
									OFFSET	1	0	0
								}
							}
						}
					}
					JOINT left_clavicle
					{
						OFFSET	-43.2	22.4	-70.8
						CHANNELS 3  Xrotation Yrotation Zrotation
						JOINT left_shoulder
						{
							OFFSET	-93.9	-5.79999	48.7
							CHANNELS 3  Xrotation Yrotation Zrotation
							JOINT left_elbow
							{
								OFFSET	-291.4	-30.8	15.2
								CHANNELS 3  Xrotation Yrotation Zrotation
								JOINT left_lowarm_twist
								{
									OFFSET	-110.7	-3.89999	13.6
									CHANNELS 3  Xrotation Yrotation Zrotation
									JOINT left_hand
									{
										OFFSET	-110.7	-3.89999	13.6
										CHANNELS 3  Xrotation Yrotation Zrotation
										JOINT left_ee
										{
											OFFSET	-80.8	-5.10001	12.1
											CHANNELS 3  Xrotation Yrotation Zrotation
											End Site
											{
												OFFSET	1	0	0
											}
										}
									}
								}
							}
						}
					}
					JOINT right_clavicle
					{
						OFFSET	43.2	22.4	-70.8
						CHANNELS 3  Xrotation Yrotation Zrotation
						JOINT right_shoulder
						{
							OFFSET	93.9	-5.79999	48.7
							CHANNELS 3  Xrotation Yrotation Zrotation
							JOINT right_elbow
							{
								OFFSET	291.4	-30.8	15.2
								CHANNELS 3  Xrotation Yrotation Zrotation
								JOINT right_lowarm_twist
								{
									OFFSET	110.7	-3.89999	13.6
									CHANNELS 3  Xrotation Yrotation Zrotation
									JOINT right_hand
									{
										OFFSET	110.7	-3.89999	13.6
										CHANNELS 3  Xrotation Yrotation Zrotation
										JOINT right_ee
										{
											OFFSET	80.8	-5.10001	12.1
											CHANNELS 3  Xrotation Yrotation Zrotation
											End Site
											{
												OFFSET	1	0	0
											}
										}
									}
								}
							}
						}
					}
				}
			}
		}
	}
	JOINT left_hip
	{
		OFFSET	-82.8	-127.5	0.300001
		CHANNELS 3  Xrotation Yrotation Zrotation
		JOINT left_knee
		{
			OFFSET	-28.2	-396.7	2.2
			CHANNELS 3  Xrotation Yrotation Zrotation
			JOINT left_ankle
			{
				OFFSET	-11.7	-411.3	35.4
				CHANNELS 3  Xrotation Yrotation Zrotation
				JOINT left_toes
				{
					OFFSET	0	-60	-88.6
					CHANNELS 3  Xrotation Yrotation Zrotation
					JOINT left_foot_ee
					{
						OFFSET	-22.5	-16.5	-42.2
						CHANNELS 3  Xrotation Yrotation Zrotation
						End Site
						{
							OFFSET	1	0	0
						}
					}
				}
			}
		}
	}
	JOINT right_hip
	{
		OFFSET	82.8	-127.5	0.300001
		CHANNELS 3  Xrotation Yrotation Zrotation
		JOINT right_knee
		{
			OFFSET	28.2	-396.7	2.2
			CHANNELS 3  Xrotation Yrotation Zrotation
			JOINT right_ankle
			{
				OFFSET	11.7	-411.3	35.4
				CHANNELS 3  Xrotation Yrotation Zrotation
				JOINT right_toes
				{
					OFFSET	0	-60	-88.6
					CHANNELS 3  Xrotation Yrotation Zrotation
					JOINT right_foot_ee
					{
						OFFSET	22.5	-16.5	-42.2
						CHANNELS 3  Xrotation Yrotation Zrotation
						End Site
						{
							OFFSET	1	0	0
						}
					}
				}
			}
		}
	}
}
MOTION
Frames: 16
Frame Time: 0.02
412.962 743.221 -602.095 175.932 -50.8448 178.554 -1.04237 0.564694 3.31491 -1.03632 0.352734 3.34408 -1.0107 -0.417179 3.33666 -1.02621 0.114712 3.36065 -23.8382 17.4956 -9.92216 -26.8737 37.9482 0.577525 -0.0 0.0 -0.0 -2.41517 23.2027 -0.638865 4.65404 -15.5707 60.2419 2.81937 -54.3868 1.44876 -73.3435 -6.97319 5.31972 0.819168 -6.99873 2.56057 -0.0 0.0 -0.0 12.726 24.4982 -25.2115 3.51589 -34.8035 -68.6483 1.01655 26.7278 -0.241505 71.1282 2.85827 8.03278 -3.16862 -27.2358 6.72737 0.0 0.0 0.0 -9.2515 29.8298 -3.29368 7.80064 -0.398851 -1.12912 15.6521 4.58424 -2.18063 -16.5872 0.0 0.0 -0.0 0.0 -0.0 24.8454 56.0238 -22.9151 -22.8129 -0.251636 -3.4687 33.6013 0.277164 4.28403 -22.7193 0.0 0.0 0.0 0.0 0.0 
415.139 742.545 -598.396 175.939 -51.4558 178.723 -0.925736 0.486612 3.33157 -0.919604 0.273752 3.35575 -0.898833 -0.49037 3.33102 -0.914312 0.0415472 3.36663 -24.2261 17.8224 -8.54522 -27.417 37.9011 2.20962 -0.0 0.0 -0.0 -2.39632 23.1532 -0.62176 5.05767 -14.6247 60.4592 2.75136 -53.7225 1.3937 -73.4401 -6.98554 5.31986 0.823549 -6.28494 2.8923 -0.0 0.0 -0.0 12.6006 24.1774 -24.9554 3.01839 -35.2092 -69.139 1.00926 26.5626 -0.238238 71.2862 2.87491 8.04436 -3.08046 -26.9529 6.39941 0.0 0.0 0.0 -8.91264 29.6095 -3.76761 7.87345 -0.403294 -1.13939 16.1246 3.88349 -2.24354 -17.3019 0.0 0.0 -0.0 0.0 -0.0 24.476 55.7343 -22.8012 -22.9856 -0.248248 -3.49498 33.5673 1.20661 4.28848 -22.1359 0.0 0.0 0.0 0.0 0.0 
424.212 741.376 -592.18 175.691 -51.8424 177.934 -0.874238 0.51963 3.38893 -0.8679 0.30306 3.41509 -0.844974 -0.471982 3.39589 -0.861058 0.0699317 3.42778 -24.8946 18.3601 -7.11136 -28.3695 38.2018 4.15929 -0.0 0.0 -0.0 -2.29855 23.2633 -0.467203 5.531 -12.9794 60.218 2.64689 -52.6594 1.31005 -73.8419 -7.03689 5.32018 0.776719 -5.79635 2.78233 -0.0 0.0 -0.0 12.4621 23.9793 -24.6565 2.61146 -35.6343 -69.465 0.957414 25.3734 -0.215533 71.2086 2.86674 8.03868 -3.0662 -26.331 6.66944 0.0 0.0 0.0 -9.52382 29.4837 -3.52233 6.60191 -0.327587 -0.959222 17.2176 2.80049 -2.38754 -17.4295 0.0 0.0 -0.0 0.0 -0.0 23.5953 55.401 -22.2742 -24.3556 -0.218565 -3.70312 34.7974 1.98925 4.41709 -22.1134 0.0 0.0 0.0 0.0 0.0 
428.942 740.246 -581.969 175.71 -52.7712 177.698 -0.696541 0.513326 3.39842 -0.690165 0.296165 3.42416 -0.667899 -0.470222 3.40465 -0.684065 0.0730508 3.43615 -25.2261 18.8782 -5.28858 -28.8886 38.382 6.32234 -0.0 0.0 -0.0 -2.27658 23.2101 -0.446324 5.79341 -11.7583 60.0096 2.58782 -52.0345 1.26329 -73.9039 -7.04481 5.32019 0.748705 -5.33452 2.78788 -0.0 0.0 -0.0 12.4384 23.8417 -24.6157 1.79515 -35.9077 -70.4892 0.910147 24.2684 -0.195691 71.2845 2.87474 8.04423 -3.07655 -26.064 6.8773 0.0 0.0 0.0 -10.1009 29.4533 -3.582 6.58533 -0.326626 -0.956861 16.9227 3.47443 -2.34763 -17.2785 0.0 0.0 -0.0 0.0 -0.0 22.5113 53.9182 -21.3539 -24.8706 -0.206121 -3.78117 34.4659 2.76498 4.39307 -21.6581 0.0 0.0 0.0 0.0 0.0 
434.036 741.502 -574.266 175.493 -53.1051 177.102 -0.578307 0.633431 3.51432 -0.57153 0.408666 3.54745 -0.541371 -0.379836 3.55065 -0.558913 0.185321 3.56608 -24.5722 18.7515 -4.04126 -27.973 37.708 7.07441 -0.0 0.0 -0.0 -2.46388 23.4602 -0.659188 5.5952 -10.587 60.2287 2.5104 -51.188 1.20261 -73.8868 -7.04263 5.32019 0.640748 -5.63911 1.93091 -0.0 0.0 -0.0 12.5137 24.4897 -24.7229 1.74446 -35.9906 -70.9282 0.874406 23.4198 -0.181242 71.1979 2.86561 8.03789 -3.12303 -25.9085 7.22605 0.0 0.0 0.0 -10.0426 28.3729 -3.7475 5.8727 -0.285987 -0.855168 16.3902 3.32775 -2.2794 -17.23 0.0 0.0 -0.0 0.0 -0.0 21.1432 51.7153 -20.6812 -25.9196 -0.178604 -3.93981 34.2294 1.33471 4.3552 -21.4898 0.0 0.0 0.0 0.0 0.0 
440.021 739.889 -568.022 175.496 -53.4953 176.668 -0.455996 0.825802 3.63348 -0.448848 0.593082 3.67857 -0.405518 -0.219528 3.71955 -0.42463 0.370247 3.7076 -25.6357 18.6759 -4.02507 -29.1958 37.4355 7.44299 -0.0 0.0 -0.0 -2.33546 23.7773 -0.426384 5.72112 -8.37283 60.2399 2.54357 -51.5545 1.22852 -73.4776 -6.99033 5.3199 0.328299 -4.93021 0.123636 -0.0 0.0 -0.0 12.6258 25.1228 -24.9135 1.88724 -35.7601 -70.5527 0.786231 21.2796 -0.147707 71.0161 2.84648 8.02453 -3.28952 -26.9438 7.56524 0.0 0.0 0.0 -10.5497 27.8116 -3.68769 5.53761 -0.267316 -0.807179 15.792 2.93445 -2.20293 -16.3051 0.0 0.0 -0.0 0.0 -0.0 19.6861 49.9889 -19.4415 -26.9267 -0.149458 -4.09161 35.3699 3.05612 4.48408 -20.4568 0.0 0.0 0.0 0.0 0.0 
444.968 739.163 -564.135 175.755 -53.9009 176.731 -0.359436 0.949465 3.69971 -0.352104 0.71229 3.75253 -0.300033 -0.111934 3.8178 -0.320031 0.49198 3.78767 -25.4253 18.5202 -3.67425 -28.8548 37.0244 7.55188 -0.0 0.0 -0.0 -2.21927 23.811 -0.262217 5.85851 -6.97848 60.4092 2.5073 -51.1535 1.20019 -73.4009 -6.98053 5.3198 0.162345 -4.76243 -0.923578 -0.0 0.0 -0.0 12.7207 24.6599 -25.1821 1.85459 -35.959 -70.7289 0.739889 20.1288 -0.131322 71.1118 2.85655 8.03157 -3.36967 -27.2042 7.85899 0.0 0.0 0.0 -10.0538 27.6597 -4.4199 5.10378 -0.243563 -0.744894 15.5021 2.86616 -2.16534 -15.7572 0.0 0.0 -0.0 0.0 -0.0 19.3251 49.7001 -19.0824 -27.517 -0.131134 -4.18035 35.649 4.24123 4.52573 -19.6908 0.0 0.0 0.0 0.0 0.0 
446.543 738.108 -562.003 175.381 -53.9608 176.299 -0.461175 1.06947 3.74415 -0.453759 0.829226 3.8045 -0.392729 -0.0149711 3.89366 -0.413379 0.599686 3.8473 -25.7931 18.1417 -3.51933 -29.1124 36.2042 7.53432 -0.0 0.0 -0.0 -2.55067 24.0098 -0.676766 5.02195 -7.30548 61.0124 2.50386 -51.115 1.19751 -73.043 -6.93477 5.31918 -0.0402379 -4.61851 -2.22776 -0.0 0.0 -0.0 12.8202 25.1482 -25.3591 2.44462 -35.8984 -70.831 0.70991 19.3752 -0.12119 71.0654 2.85166 8.02816 -3.44894 -27.4286 8.16652 0.0 0.0 0.0 -9.99326 26.6962 -4.61912 4.52156 -0.212429 -0.66103 15.2102 2.51936 -2.12823 -14.8544 0.0 0.0 -0.0 0.0 -0.0 18.1912 47.1794 -18.3039 -28.222 -0.108049 -4.28609 34.848 1.34229 4.4157 -19.35 0.0 0.0 0.0 0.0 0.0 
451.674 735.716 -558.882 174.382 -54.9545 175.371 -0.480075 1.01806 3.77759 -0.472472 0.775802 3.8346 -0.414537 -0.0752708 3.91145 -0.435471 0.542943 3.87437 -25.419 17.2615 -4.08836 -28.3586 34.8055 6.22903 -0.0 0.0 -0.0 -3.07285 24.6005 -1.26718 5.27684 -4.99501 62.6873 2.50355 -51.1115 1.19727 -73.3339 -6.97196 5.31971 -0.290439 -4.85523 -4.01712 -0.0 0.0 -0.0 12.8749 26.243 -25.3597 2.50471 -35.7717 -71.0686 0.680894 18.639 -0.11174 70.2975 2.7713 7.97114 -3.48242 -27.3198 8.4166 0.0 0.0 0.0 -10.034 26.8394 -5.51742 4.37881 -0.204926 -0.640421 14.8544 -0.0552511 -2.09186 -13.5782 0.0 0.0 -0.0 0.0 -0.0 16.3771 46.9001 -16.8737 -29.2782 -0.0710363 -4.44395 36.2761 2.18866 4.56053 -18.2368 0.0 0.0 0.0 0.0 0.0 
461.994 733.813 -552.782 173.763 -55.3552 174.981 -0.502461 1.09341 3.79736 -0.494841 0.849748 3.85912 -0.431357 -0.00940293 3.95141 -0.452614 0.614284 3.90346 -25.1949 17.3637 -3.97471 -28.1332 34.9781 6.32792 -0.0 0.0 -0.0 -3.3152 24.8524 -1.53991 4.84368 -4.36683 63.5144 2.35631 -49.4056 1.08404 -73.1009 -6.94218 5.3193 -0.381853 -4.29688 -4.39499 -0.0 0.0 -0.0 13.1203 27.0383 -25.8284 2.96705 -35.5997 -70.8722 0.622362 17.1346 -0.0937612 70.8372 2.8277 8.01132 -3.54893 -27.4042 8.73544 0.0 0.0 0.0 -9.74348 26.4171 -5.39567 4.05485 -0.18809 -0.593584 13.8674 1.50199 -1.95441 -13.5672 0.0 0.0 -0.0 0.0 -0.0 14.9481 45.6712 -16.9526 -29.979 -0.0448686 -4.54833 35.8869 -0.0671115 4.50358 -17.9526 0.0 0.0 0.0 0.0 0.0 
466.109 735.245 -549.276 173.283 -56.6447 174.33 -0.489496 1.12498 3.84488 -0.481701 0.87823 3.90854 -0.415386 0.00883474 4.00583 -0.437201 0.640869 3.95433 -25.8001 16.7873 -4.33172 -28.6268 33.9588 5.79098 -0.0 0.0 -0.0 -3.45042 24.7388 -1.74465 4.37996 -3.13832 64.3525 2.23836 -47.9475 0.995455 -73.0861 -6.94029 5.31927 -0.569663 -2.64348 -4.94991 -0.0 0.0 -0.0 13.3172 27.4408 -26.2316 3.99509 -35.4675 -70.5412 0.550656 15.258 -0.0737575 70.3966 2.78163 7.97856 -3.70156 -27.3751 9.60189 0.0 0.0 0.0 -9.23248 26.0446 -6.19632 3.61932 -0.165875 -0.53047 15.2027 1.66645 -2.13025 -12.4102 0.0 0.0 -0.0 0.0 -0.0 13.6151 43.8515 -15.8307 -30.5369 -0.0231268 -4.63118 37.8981 -1.4917 4.681 -17.2951 0.0 0.0 0.0 0.0 0.0 
474.686 735.12 -545.588 173.109 -57.8783 174.19 -0.662667 1.06851 3.88419 -0.654649 0.819383 3.94418 -0.5914 -0.0688921 4.02767 -0.613583 0.567553 3.98814 -26.0585 16.9452 -4.30031 -28.9805 34.2149 6.02147 -0.0 0.0 -0.0 -3.76609 24.6222 -2.19373 3.21179 -3.16135 64.8467 2.0996 -46.1199 0.893905 -73.0026 -6.92961 5.31909 -0.527452 -2.60765 -4.64992 -0.0 0.0 -0.0 13.4857 26.6797 -26.7192 4.83895 -34.0077 -70.0116 0.533472 14.8031 -0.0693011 70.1577 2.75674 7.96064 -3.64907 -27.6099 9.16698 0.0 0.0 0.0 -8.3288 25.6111 -6.76717 3.78697 -0.174369 -0.554784 15.9768 0.569336 -2.23615 -12.6269 0.0 0.0 -0.0 0.0 -0.0 13.1371 44.5706 -15.8275 -30.5174 -0.0239017 -4.62828 38.3186 -3.57102 4.71107 -17.2517 0.0 0.0 0.0 0.0 0.0 
478.863 733.68 -539.037 172.881 -59.8659 173.386 -0.63887 0.928069 3.89876 -0.630671 0.678299 3.9498 -0.577349 -0.207118 4.00218 -0.599441 0.427038 3.98475 -24.4178 16.5344 -4.09408 -26.9473 33.5313 5.36804 -0.0 0.0 -0.0 -3.57007 23.7914 -2.10965 2.85586 -1.96438 65.1071 1.89143 -43.1315 0.747621 -71.9914 -6.80037 5.31568 -0.708333 0.703993 -4.42888 -0.0 0.0 -0.0 13.7845 26.7624 -27.4037 6.93672 -32.667 -69.6911 0.506025 14.0726 -0.0624578 69.5693 2.6958 7.91608 -3.47906 -27.4282 8.33359 0.0 0.0 0.0 -7.66844 25.2815 -7.10743 3.69459 -0.16968 -0.541389 15.4901 0.339198 -2.17362 -11.5853 0.0 0.0 -0.0 0.0 -0.0 12.1752 44.2352 -15.298 -31.2578 0.00616232 -4.73793 38.5198 -5.88983 4.72774 -16.4262 0.0 0.0 0.0 0.0 0.0 
482.81 733.833 -531.807 172.235 -60.9529 172.784 -0.807238 0.885163 4.002 -0.79855 0.628926 4.05011 -0.74689 -0.289621 4.08834 -0.770028 0.359138 4.08283 -24.776 16.2588 -3.11318 -27.2072 32.5604 6.17792 -0.0 0.0 -0.0 -3.6467 23.4097 -2.29782 1.60255 -1.01297 65.2539 1.74027 -40.7604 0.64656 -71.3621 -6.71995 5.3124 -0.8393 3.73976 -3.97364 -0.0 0.0 -0.0 13.8736 26.0812 -27.6973 9.77453 -31.0435 -69.5349 0.498641 13.8752 -0.0606745 69.1678 2.65447 7.88532 -3.39462 -27.6244 7.75086 0.0 0.0 0.0 -6.45391 24.8969 -8.072 3.48276 -0.159008 -0.510646 16.0164 -0.356064 -2.24596 -10.837 0.0 0.0 -0.0 0.0 -0.0 11.3557 43.4462 -15.7207 -30.837 -0.0110971 -4.67566 40.5348 -7.10317 4.90737 -15.7279 0.0 0.0 0.0 0.0 0.0 
488.713 736.476 -530.032 171.169 -62.4444 171.892 -1.08982 0.851838 3.96479 -1.08127 0.598031 4.01085 -1.03169 -0.33118 4.0416 -1.05435 0.310735 4.04322 -24.5839 16.0615 -3.22957 -26.9312 32.2494 5.8776 -0.0 0.0 -0.0 -3.68135 23.2639 -2.37763 0.745705 -1.34724 65.5619 1.69135 -39.9545 0.614881 -70.5256 -6.61311 5.30667 -0.887839 5.16441 -3.66812 -0.0 0.0 -0.0 13.9268 26.3353 -27.7899 11.9308 -30.3838 -69.2579 0.496323 13.8132 -0.06012 68.9701 2.63421 7.87007 -3.21995 -27.498 6.86095 0.0 0.0 0.0 -5.79025 24.6561 -8.56145 3.37156 -0.153452 -0.494492 16.1049 -0.745235 -2.25967 -10.5405 0.0 0.0 -0.0 0.0 -0.0 10.3781 42.6095 -15.7312 -30.1113 -0.0397875 -4.56799 41.0003 -8.66463 4.95422 -15.1354 0.0 0.0 0.0 0.0 0.0 
491.192 737.795 -529.692 170.716 -64.0506 171.836 -1.22516 0.811065 3.94046 -1.21669 0.558884 3.98399 -1.16996 -0.372946 4.00564 -1.19225 0.263825 4.01429 -24.1948 15.8974 -3.7212 -26.4651 32.1789 5.20186 -0.0 0.0 -0.0 -3.53911 22.9539 -2.24699 -0.403957 -2.63089 65.81 1.63617 -39.0221 0.579788 -69.9987 -6.54585 5.30225 -0.81348 5.8973 -2.85889 -0.0 0.0 -0.0 13.7574 26.3889 -27.3878 13.6402 -29.6377 -69.1221 0.507559 14.1135 -0.0628311 69.4181 2.68021 7.90453 -3.07718 -28.0732 5.75146 0.0 0.0 0.0 -5.25481 23.4073 -8.91248 3.95307 -0.182856 -0.578849 15.0849 -1.23761 -2.12855 -10.7391 0.0 0.0 -0.0 0.0 -0.0 10.412 44.5731 -16.3067 -29.1397 -0.0760556 -4.42329 39.803 -8.57448 4.85014 -16.2482 0.0 0.0 0.0 0.0 0.0 
